<svg width="34" height="34" viewBox="0 0 34 34" fill="none" xmlns="http://www.w3.org/2000/svg">
<path d="M23.0639 11.8595C22.4727 10.8168 21.5631 10.2321 20.4744 9.9434C16.5907 8.91522 12.5421 11.3652 11.4402 15.4281C10.7585 17.9424 11.1848 20.3322 12.5563 22.4851C14.8274 26.0495 18.1311 27.8212 22.2743 27.9968C22.4422 28.004 22.6111 27.9968 22.8105 27.9417C18.4669 26.898 15.0146 24.7772 13.5799 20.1691C15.6933 23.6566 18.8749 25.4201 22.7464 25.9435C26.6363 26.469 30.0744 25.365 32.963 22.589C33.0027 22.6191 33.0434 22.6492 33.0831 22.6804C32.6547 23.5527 32.2843 24.4615 31.7888 25.2934C28.8615 30.2058 24.6166 33.1968 19.0133 33.8636C13.0661 34.5719 8.05297 32.5093 4.03798 27.9594C2.7529 26.5023 1.8453 24.8177 1.08219 23.0262C0.612113 21.9232 0.607024 20.8732 0.979423 19.7661C2.45477 15.3855 5.10125 11.9509 8.97379 9.49786C8.60343 9.91744 8.23408 10.3381 7.86168 10.7545C6.37616 12.4152 5.2732 14.3095 4.64643 16.4645C3.81209 19.3362 4.22418 22.1123 5.39428 24.8063C5.4126 24.8478 5.45635 24.8769 5.42074 24.8385C5.35562 23.6524 5.22538 22.3968 5.22945 21.1412C5.25184 15.3408 9.12539 9.68168 14.3695 7.81642C16.7474 6.97103 19.1374 7.05619 21.4715 8.05737C22.4605 8.4811 23.2969 9.13644 23.8789 10.0618C24.1089 10.4274 24.2747 10.876 24.3297 11.306C24.464 12.3456 23.9715 12.9864 22.9001 13.2086C23.9145 13.7882 24.8944 13.8733 25.9169 13.4776C28.5013 12.4775 29.018 9.10174 27.4876 7.25134C26.0876 5.55848 23.8789 4.6128 22.1227 4.10771C20.4744 3.63364 17.6154 3.19992 14.3695 4.10771C10.7116 5.13069 6.50373 7.80813 4.64643 10.0618C2.78913 12.3155 1.12696 14.806 0.00264171 17.7929C0.00264171 17.3806 -0.0044849 16.9682 0.00467245 16.5559C0.0138298 16.1239 0.016882 15.6887 0.0616513 15.2598C0.873603 7.44358 7.06906 1.09691 14.7307 0.153895C18.4496 -0.304111 21.9894 0.234903 25.2495 2.11159C31.1966 5.53573 34.1555 10.768 33.9937 17.7659C33.9723 18.7089 33.7627 19.6509 33.603 20.5866C33.5664 20.8016 33.4188 21.0342 33.256 21.1838C29.7834 24.3763 25.8142 24.9008 21.5122 23.3565C19.4752 22.6253 17.776 21.3884 16.7087 19.4078C15.909 17.9258 15.6353 16.3555 16.1409 14.7031C16.9732 11.9863 20.1264 10.5655 22.7627 11.7142C22.8645 11.7588 22.9621 11.8107 23.0619 11.8595H23.0639ZM9.48966 16.2807C8.91071 17.878 8.80489 19.521 9.15694 21.1661C9.89258 24.5986 11.8543 27.1732 14.8355 28.8203C19.7693 31.5455 24.6013 31.0408 29.2482 27.9739C29.5036 27.8057 29.7386 27.6031 29.9726 27.4048C30.1893 27.221 30.3928 27.0205 30.6014 26.8273C30.4742 26.8107 30.404 26.8554 30.3328 26.899C27.4259 28.6739 24.2747 29.3822 20.9272 28.9512C17.3497 28.4901 14.3919 26.7972 12.0771 23.9536C10.266 21.728 9.22206 19.2417 9.48966 16.2818V16.2807Z" fill="#EA580C"/>
</svg>
