<svg xmlns="http://www.w3.org/2000/svg" width="24" height="24" viewBox="0 0 16 16" fill="none">
    <path d="M13.8064 2.43661C13.8064 2.43661 15.1015 1.93161 14.9936 3.15804C14.9576 3.66305 14.6339 5.43055 14.382 7.34235L13.5186 13.0056C13.5186 13.0056 13.4467 13.8352 12.7991 13.9795C12.1516 14.1238 11.1803 13.4745 11.0004 13.3302C10.8565 13.222 8.30227 11.5988 7.40287 10.8052C7.15103 10.5888 6.86323 10.1559 7.43883 9.65092L11.2162 6.04378C11.6479 5.61092 12.0796 4.60092 10.2809 5.82735L5.24437 9.25415C5.24437 9.25415 4.66877 9.61485 3.58953 9.29022L1.25114 8.56878C1.25114 8.56878 0.387737 8.02772 1.86272 7.48662C5.46023 5.79125 9.88517 4.05982 13.8064 2.43661Z" fill="#ffffff"/>
</svg>
